<?xml version="1.0" encoding="UTF-8" standalone="no"?>
<svg
   xmlns:dc="http://purl.org/dc/elements/1.1/"
   xmlns:cc="http://creativecommons.org/ns#"
   xmlns:rdf="http://www.w3.org/1999/02/22-rdf-syntax-ns#"
   xmlns:svg="http://www.w3.org/2000/svg"
   xmlns="http://www.w3.org/2000/svg"
   xmlns:sodipodi="http://sodipodi.sourceforge.net/DTD/sodipodi-0.dtd"
   xmlns:inkscape="http://www.inkscape.org/namespaces/inkscape"
   viewBox="0 0 488.13431 96"
   version="1.1"
   id="svg10"
   sodipodi:docname="mozilla-wordmark-white.svg"
   width="488.13431"
   height="96"
   inkscape:version="0.92.1 r15371">
  <metadata
     id="metadata16">
    <rdf:RDF>
      <cc:Work
         rdf:about="">
        <dc:format>image/svg+xml</dc:format>
        <dc:type
           rdf:resource="http://purl.org/dc/dcmitype/StillImage" />
      </cc:Work>
    </rdf:RDF>
  </metadata>
  <defs
     id="defs14" />
  <sodipodi:namedview
     pagecolor="#ffffff"
     bordercolor="#666666"
     borderopacity="1"
     objecttolerance="10"
     gridtolerance="10"
     guidetolerance="10"
     inkscape:pageopacity="0"
     inkscape:pageshadow="2"
     inkscape:window-width="1366"
     inkscape:window-height="714"
     id="namedview12"
     showgrid="false"
     inkscape:zoom="1.4533333"
     inkscape:cx="150"
     inkscape:cy="29.232412"
     inkscape:window-x="0"
     inkscape:window-y="1"
     inkscape:window-maximized="1"
     inkscape:current-layer="flowRoot31" />
  <style
     id="style2">
    .st0{fill:#ffffff;}
  </style>
  <g
     inkscape:groupmode="layer"
     id="layer1"
     inkscape:label="Layer 1" />
  <g
     inkscape:groupmode="layer"
     id="layer2"
     inkscape:label="Layer 2">
    <g
       aria-label="Brasil"
       transform="translate(4.1284404,25.32827)"
       style="font-style:normal;font-variant:normal;font-weight:normal;font-stretch:normal;font-size:40px;line-height:25px;font-family:Arvo;-inkscape-font-specification:Arvo;letter-spacing:0px;word-spacing:0px;fill:#000000;fill-opacity:1;stroke:none;stroke-width:1px;stroke-linecap:butt;stroke-linejoin:miter;stroke-opacity:1"
       id="flowRoot31">
      <g
         id="g53">
        <path
           transform="translate(-4.1284404,-25.32827)"
           style="fill:#ffffff"
           inkscape:connector-curvature="0"
           id="path4"
           d="m 261.1,60.7 c 0,2.5 1.2,4.6 4.7,4.6 4,0 8.3,-2.9 8.6,-9.5 -1.9,-0.3 -3.8,-0.5 -5.7,-0.5 -4.1,-0.1 -7.6,1.1 -7.6,5.4 z"
           class="st0" />
        <path
           transform="translate(-4.1284404,-25.32827)"
           style="fill:#ffffff"
           inkscape:connector-curvature="0"
           id="path8"
           d="m 110.6,40.7 c -5.8,0 -9.4,4.3 -9.4,11.8 0,6.8 3.2,12.1 9.3,12.1 5.9,0 9.7,-4.8 9.7,-12.3 0.1,-8 -4.2,-11.6 -9.6,-11.6 z"
           class="st0" />
        <path
           transform="translate(-4.1284404,-25.32827)"
           inkscape:connector-curvature="0"
           id="path6"
           d="M 0,0 V 96 H 300 V 0 Z M 84.9,72.5 H 68.3 V 50.2 c 0,-6.8 -2.3,-9.5 -6.8,-9.5 -5.4,0 -7.7,3.9 -7.7,9.4 V 63.9 H 59 v 8.7 H 42.5 V 50.2 c 0,-6.8 -2.3,-9.5 -6.8,-9.5 -5.4,0 -7.7,3.9 -7.7,9.4 v 13.8 h 7.5 v 8.7 h -24 V 64 h 5.3 V 41.4 h -5.7 v -8.6 h 17.1 v 6 c 2.4,-4.2 6.5,-6.7 12,-6.7 5.7,0 11,2.7 12.9,8.6 2.2,-5.3 6.7,-8.6 12.9,-8.6 7.1,0 13.6,4.3 13.6,13.7 v 18.1 h 5.3 z m 25.2,0.8 C 97.9,73.3 89.5,65.8 89.5,53.2 89.5,41.6 96.6,32 110.8,32 125,32 132,41.6 132,52.6 c 0,12.7 -9.2,20.7 -21.9,20.7 z m 63.2,-0.8 h -34.6 l -1.1,-6 21.8,-25 H 147 l -1.8,6.2 -8.2,-0.9 1.4,-13.9 h 34.9 l 0.9,6 -22,25 H 165 l 1.9,-6.2 9,0.9 z m 21.4,0 H 182.8 V 58.2 h 11.9 z m 0,-25.5 H 182.8 V 32.8 h 11.9 z M 201,72.5 218.1,12 h 11.1 L 212,72.5 Z m 23,0 17.1,-60.5 h 11.1 l -17.1,60.5 z m 59,0.8 c -5.3,0 -8.2,-3.1 -8.7,-7.9 -2.3,4 -6.3,7.9 -12.8,7.9 -5.7,0 -12.2,-3.1 -12.2,-11.4 0,-9.7 9.4,-12 18.5,-12 2.2,0 4.4,0.1 6.5,0.4 V 49 c 0,-4 -0.1,-8.9 -6.5,-8.9 -2.4,0 -4.2,0.2 -6.1,1.1 l -1.4,5.6 -9.1,-1 1.8,-10.3 c 6.9,-2.8 10.5,-3.6 17,-3.6 8.6,0 15.7,4.4 15.7,13.4 v 17.2 c 0,2.3 0.9,3.1 2.7,3.1 0.6,0 1.1,-0.1 1.7,-0.3 l 0.1,6 c -2.2,1.4 -4.6,2 -7.2,2 z"
           class="st0"
           style="fill:#ffffff" />
        <path
           id="path28"
           style="font-size:64px;fill:#ffffff"
           d="m 311.34961,41.124855 h 4.5 V 4.5311055 h -4.5 v -5.46875003 l 21.3125,0.0625 q 2.875,0 5.40625,1.09375 2.53125,1.06250003 4.40625,2.93750003 1.875,1.84375 2.9375,4.375 1.09375,2.5312495 1.09375,5.4374995 0,3.03125 -1.6875,5.53125 -1.6875,2.5 -4.8125,4 1.53125,0.8125 2.78125,1.90625 1.25,1.0625 2.125,2.34375 0.875,1.28125 1.34375,2.71875 0.5,1.4375 0.5,2.9375 0,2.96875 -1.09375,5.53125 -1.0625,2.5625 -2.9375,4.46875 -1.875,1.90625 -4.40625,3 -2.5,1.09375 -5.375,1.09375 h -21.59375 z m 10.625,-15.6875 v 15.6875 h 11.03125 q 1.5,0 2.78125,-0.75 1.28125,-0.75 2.25,-1.9375 0.96875,-1.21875 1.5,-2.75 0.5625,-1.53125 0.5625,-3.125 0,-1.375 -0.5625,-2.65625 -0.5625,-1.28125 -1.53125,-2.28125 -0.9375,-1 -2.25,-1.59375 -1.28125,-0.59375 -2.75,-0.59375 z m 0,-20.9062495 V 19.999855 h 10.75 q 1.5,0 2.78125,-0.59375 1.3125,-0.59375 2.25,-1.59375 0.96875,-1 1.53125,-2.3125 0.5625,-1.3125 0.5625,-2.71875 0,-1.53125 -0.5625,-2.9999995 -0.5625,-1.5 -1.53125,-2.65625 -0.96875,-1.15625 -2.28125,-1.875 -1.28125,-0.71875 -2.75,-0.71875 z" />
        <path
           id="path30"
           style="font-size:64px;fill:#ffffff"
           d="m 375.53711,20.968605 h -5.9375 v -2 q -1.03125,0 -2.125,0.40625 -1.0625,0.375 -2,1.1875 -0.9375,0.78125 -1.65625,2.03125 -0.6875,1.21875 -1,2.90625 v 15.625 h 5.5 v 5.375 h -16.0625 v -5.375 h 4.46875 l 0.0312,-21.625 h -4.5 v -5.375 h 10.34375 v 4.46875 q 0.5625,-1 1.25,-1.84375 0.71875,-0.875 1.5625,-1.5 0.875,-0.65625 1.90625,-1 1.0625,-0.375 2.28125,-0.375 1.625,0 3.0625,0 1.4375,0 2.875,0.0625 z" />
        <path
           id="path32"
           style="font-size:64px;fill:#ffffff"
           d="m 401.28711,43.499855 q -1.84375,1.71875 -4.09375,2.8125 -2.21875,1.09375 -5.0625,1.09375 -2.375,0 -4.375,-0.75 -1.96875,-0.75 -3.40625,-2.03125 -1.4375,-1.3125 -2.25,-3.03125 -0.78125,-1.71875 -0.78125,-3.65625 0,-2.0625 0.59375,-3.65625 0.625,-1.59375 1.625,-2.75 1.03125,-1.1875 2.375,-1.96875 1.375,-0.8125 2.84375,-1.28125 1.5,-0.5 3.03125,-0.6875 1.5625,-0.21875 2.96875,-0.21875 2.25,0 3.78125,0.15625 1.53125,0.125 2.78125,0.375 l 0.0312,-2.65625 q 0,-1.71875 -0.5,-2.96875 -0.5,-1.28125 -1.40625,-2.09375 -0.90625,-0.84375 -2.1875,-1.25 -1.25,-0.40625 -2.8125,-0.40625 -1.46875,0 -2.8125,0.21875 -1.34375,0.1875 -2.53125,0.53125 -1.15625,0.3125 -2.15625,0.75 -0.96875,0.40625 -1.65625,0.875 l -1.90625,-4.03125 q 1.15625,-0.75 2.53125,-1.375 1.375,-0.65625 2.875,-1.09375 1.53125,-0.46875 3.09375,-0.71875 1.59375,-0.28125 3.125,-0.28125 2.8125,0 5.0625,0.6875 2.25,0.65625 3.8125,2.0625 1.5625,1.40625 2.40625,3.59375 0.84375,2.15625 0.84375,5.1875 l -0.0312,16.1875 h 3.59375 v 5.375 h -9.40625 z m -7.875,-0.96875 q 1.15625,0 2.3125,-0.28125 1.15625,-0.28125 2.1875,-0.75 1.03125,-0.5 1.90625,-1.125 0.875,-0.65625 1.46875,-1.34375 l 0.0312,-7.3125 h -6.75 q -1.6875,0 -3.09375,0.375 -1.375,0.375 -2.40625,1.09375 -1,0.71875 -1.5625,1.78125 -0.5625,1.0625 -0.5625,2.4375 0,1.28125 0.46875,2.25 0.46875,0.9375 1.3125,1.59375 0.875,0.625 2.0625,0.96875 1.1875,0.3125 2.625,0.3125 z" />
        <path
           id="path34"
           style="font-size:64px;fill:#ffffff"
           d="m 435.94336,22.812355 q 0,-1.3125 -0.625,-2.21875 -0.59375,-0.9375 -1.5625,-1.5 -0.96875,-0.59375 -2.15625,-0.84375 -1.1875,-0.28125 -2.3125,-0.28125 -1.25,0 -2.3125,0.28125 -1.03125,0.28125 -1.78125,0.8125 -0.75,0.53125 -1.1875,1.3125 -0.40625,0.75 -0.40625,1.6875 0,1.625 0.96875,2.59375 1,0.9375 3.3125,1.75 l 6.21875,2.1875 q 4,1.34375 5.84375,3.65625 1.84375,2.3125 1.84375,5.53125 0,2.15625 -0.875,3.96875 -0.84375,1.78125 -2.4375,3.0625 -1.5625,1.25 -3.78125,1.9375 -2.21875,0.71875 -4.9375,0.71875 -3.78125,0 -6.15625,-1.21875 -2.375,-1.21875 -3.65625,-3.21875 h -3.25 v -5.375 h 6.46875 q 0,1.34375 0.5625,2.3125 0.59375,0.9375 1.53125,1.53125 0.96875,0.59375 2.15625,0.875 1.21875,0.28125 2.46875,0.28125 1.21875,0 2.34375,-0.28125 1.125,-0.3125 1.96875,-0.875 0.875,-0.59375 1.375,-1.40625 0.5,-0.8125 0.5,-1.84375 0,-1.5625 -1.03125,-2.65625 -1,-1.09375 -3.4375,-1.96875 l -6.1875,-2.3125 q -3.78125,-1.34375 -5.625,-3.40625 -1.8125,-2.09375 -1.8125,-5.21875 0,-2.0625 0.75,-3.8125 0.78125,-1.75 2.21875,-3 1.46875,-1.28125 3.5625,-2 2.09375,-0.71875 4.78125,-0.71875 3.46875,0 5.8125,0.96875 2.34375,0.96875 4.21875,3.3125 h 3.03125 v 5.375 z" />
        <path
           id="path36"
           style="font-size:64px;fill:#ffffff"
           d="m 448.00586,14.124855 h 10.5625 v 27 h 4.875 v 5.375 h -15.375 v -5.375 h 4.625 v -21.625 h -4.6875 z m 3.59375,-11.4687495 q 0,-0.8125 0.3125,-1.53125 0.34375,-0.75000003 0.875,-1.28125003 0.5625,-0.5625 1.3125,-0.87499997 0.75,-0.34375 1.59375,-0.34375 0.8125,0 1.53125,0.34375 0.75,0.31249997 1.28125,0.87499997 0.5625,0.53125 0.875,1.28125003 0.34375,0.71875 0.34375,1.53125 0,0.84375 -0.34375,1.59375 -0.3125,0.75 -0.875,1.34375 -0.53125,0.5625 -1.28125,0.90625 -0.71875,0.3125 -1.53125,0.3125 -0.84375,0 -1.59375,-0.3125 -0.75,-0.34375 -1.3125,-0.90625 -0.53125,-0.59375 -0.875,-1.34375 -0.3125,-0.75 -0.3125,-1.59375 z" />
        <path
           id="path38"
           style="font-size:64px;fill:#ffffff"
           d="m 468.63086,-2.1251445 h 10.5 V 41.124855 h 4.875 v 5.375 h -15.375 v -5.375 h 4.6875 V 3.2498555 h -4.6875 z" />
      </g>
    </g>
  </g>
</svg>
