<svg xmlns="http://www.w3.org/2000/svg" viewBox="0 0 523.6 355.3">
  <style>
    .st0{fill:#F25F00;} .st1{fill:#954533;} .st2{fill:#FF9100;} .st3{fill:#EA5B00;} .st4{fill:#E35800;} .st5{fill:#A74231;} .st6{fill:#F0705A;} .st7{fill:#FFFFFF;} .st8{fill:#E3C692;} .st9{fill:#FFEBC5;} .st10{fill:#FFF6DE;} .st11{fill:#969AA2;} .st12{fill:#DE4112;} .st13{fill:#CBB183;} .st14{fill:#CDC2A8;} .st15{fill:#ECD7B4;}
  </style>
  <path class="st0" d="M196.2 87.9h-126v.1C30.9 89.9 0 122.3 0 161.7v23h196.2V87.9zm74.1 96.7v-22.9c0-40.7 33-73.8 73.8-73.8H220.9v96.7h49.4zM270.3 338.2H344z"/>
  <path class="st1" d="M284.9 319.2v-139l31.9-.9h87v-17.6c0-33-26.7-59.8-59.8-59.8-33 0-59.8 26.7-59.8 59.8v162.5h.6l.1-5z"/>
  <path class="st2" d="M357.6 324.2h-73.3V161.7c0-33 26.7-59.8 59.8-59.8 33 0 59.8 26.7 59.8 59.8v17.7h14v-17.7c0-40.7-33-73.8-73.8-73.8-40.7 0-73.8 33-73.8 73.8v176.5h87.3v-14z"/>
  <path class="st3" d="M149.1 224.1c0-19.8 16.1-35.9 35.9-35.9 3.8.1 7.6.7 11.2 2l-1-19.7L0 184.6v69.5h165.4c-10.1-6.6-16.3-17.9-16.3-30zm71.8 0c0 12.1-6.1 23.4-16.3 30h65.6v-87.4l-49.4 3.9.1 53.5z"/>
  <path class="st4" d="M270.3 236.2l-65.6 6.2C199 246.1 192.3 260 185 260s-24-11.9-29.6-15.6L0 254.1v69.5h270.2v-87.4z"/>
  <path class="st5" d="M196.2 190.2c-3.6-1.3-7.4-1.9-11.2-2-19.8 0-35.9 16.1-35.9 35.9 0 19.8 16.1 35.9 35.9 35.9s35.9-16.1 35.9-35.9V6l-.1.1c-.1.9-.5 1.7-1.1 2.2h-74.8l5.6 23.3c1.7 7 7.3 12.3 14.4 13.5l24.4 4.3 6.9 140.8zM183.8 208c9.1 0 16.5 7.4 16.5 16.5s-7.4 16.5-16.5 16.5-16.5-7.4-16.5-16.5 7.4-16.5 16.5-16.5z"/>
  <path class="st6" d="M215.6 8.3h5.3V6c0-3.3-2.7-6-6-6h-.2l-65.5 2.8c-2.5 0-4.5 2-4.5 4.5 0 .4 0 .7.1 1.1l70.8-.1z"/>
  <circle class="st7" cx="183.8" cy="224.5" r="16.5"/>
  <path class="st8" d="M403.8 175l-88.9 4.3 1.4 19.8h130.5l-.1-22.2v-1c0-1.5-1.2-2.8-2.7-2.8h-.2l-25.9 1.3-14.1.6z"/>
  <path class="st5" d="M270.3 323.7L0 317.5v20.6h270.3v-14.4z"/>
  <path class="st9" d="M284.9 319.2V207v112.2zM316.8 207v26.6h62.4v6h-62.4v17.5h46.7v6h-46.7v14.1h6v6h-6v35.9h140.1V207H316.8zm18.7 70.3h36v6h-36v-6z"/>
  <path class="st10" d="M284.9 203v3.9-7.9 4zm31.4-3.9l.5 7.9h152.3v-5c0-1.6-1.3-2.9-2.9-2.9H316.3z"/>
  <path class="st11" d="M296.8 239.6h82.4v-6.1h-82.4v6.1zm0 23.6h66.7v-6h-66.7v6zm0 20.2h26v-6h-26v6zm38.7-6.1h36v6h-36v-6z"/>
  <path class="st3" d="M416.4 324.2h-58.9v14h58.9v-14z"/>
  <path class="st0" d="M523.1 330c.9-1.4.5-3.4-1-4.3-.5-.3-1.1-.5-1.6-.5l-104.1-1v14h98.3c2 0 3.9-1 5-2.8l3.4-5.4z"/>
  <path class="st10" d="M469.2 207l-5.3 113.2c-.1 3-2.6 5.3-5.6 5.3h-5.2V207h16.1z"/>
  <path class="st12" d="M437 219.4l-34.8 2.7c-1.7.2-3 1.8-2.8 3.5v.1l3.7 36.5c.2 1.5 1.4 2.7 2.9 2.7h28.1c1.6 0 2.9-1.2 3-2.8l3-39.2c.2-1.7-1-3.3-2.7-3.5h-.4z"/>
  <path class="st13" d="M314.9 179.3l-30.6.9v18.9h32l-1.4-19.8z"/>
  <path class="st14" d="M316.3 199.1h-32v7.9h32.6l-.6-7.9z"/>
  <path class="st15" d="M324.6 317.9l-7.8-111h-32.6v117.2h31.9l137 1.2v-7.5H324.6z"/>
  <path class="st14" d="M453.2 317.9v7.5h5.2c2.9 0 5.3-2.2 5.5-5.1l.1-2.4h-10.8z"/>
  <path class="st11" d="M294.8 241.5l.4-8.8 84.8-4v14l-85.2-1.2zm-.4 11.5v13.7l68.8-.8 1-9.2-69.8-3.7zm40.3 24.2v13l37-3.2v-9.8h-37zm-11.5 0v14l-28.4-4.8-.4-9.2h28.8z"/>
  <path class="st2" d="M488.3 338.2v13.4c-.1 2 1.4 3.7 3.3 3.8h9.2c3.4 0 6.2-2.8 6.6-6.6l1.2-10.5h-20.3z"/>
</svg>
