<svg xmlns="http://www.w3.org/2000/svg" xml:space="preserve" id="Layer_1" x="0" y="0" version="1.1" viewBox="0 0 25 200">
  <style>
    .st0{fill:none;stroke:#fff;stroke-width:2;stroke-linecap:round;stroke-linejoin:round;stroke-miterlimit:10}
  </style>
  <path d="M5.3 1.5h14m-14 5h14m-14 6h14m-13 22.1 12.9-12.9m0 12.9L6.3 21.7m-1 22.8 7.4 7.3 7.3-7.3m0 26.6-7.3-7.3-7.4 7.3" class="st0"/>
  <circle cx="10.7" cy="88.1" r="5.8" class="st0"/>
  <path d="m16.2 92.5 2.7 2.7" class="st0"/>
  <path d="M5.5 103.9c-1.7 1.7-1.7 4.6 0 6.3L13 118c2.5-2.6 5-5.2 7.6-7.7 1.7-1.7 1.7-4.6 0-6.3-1.7-1.7-4.4-1.7-6.2 0l-1.4 1.4-1.4-1.4c-1.7-1.8-4.4-1.8-6.1-.1"/>
  <path fill="#c13832" d="M5.5 123.9c-1.7 1.7-1.7 4.6 0 6.3L13 138c2.5-2.6 5-5.2 7.6-7.7 1.7-1.7 1.7-4.6 0-6.3-1.7-1.7-4.4-1.7-6.2 0l-1.4 1.4-1.4-1.4c-1.7-1.8-4.4-1.8-6.1-.1"/>
  <path fill="none" stroke="#000" stroke-linecap="round" stroke-linejoin="round" stroke-miterlimit="10" stroke-width="2" d="m20.4 190.3-7.3-7.3-7.4 7.3m7.3-.8v5.3"/>
  <path fill="#231f20" d="M70.7 91.6s.1 0 .2-.1c-.2 0-.2 0-.2.1z"/>
  <path d="M21.4 147.1c-.4-.9-1.2-2-1.8-2.3.4.9.8 1.8.9 2.7-1-2.5-2.8-3.6-4.2-5.8-.1-.1-.1-.2-.2-.3 0-.1-.1-.1-.1-.2-.1-.1-.1-.2-.1-.4-2 1.2-2.9 3.2-3.1 4.5-.6 0-1.2.2-1.8.5-.1.1-.2.2-.1.3.1.1.2.2.3.1.5-.2 1-.4 1.6-.4H13.1c.4 0 .9.1 1.3.2h.1c.1 0 .1 0 .2.1.1 0 .1 0 .2.1h.1c.1 0 .1.1.2.1h.1c.1 0 .1.1.2.1 0 0 .1 0 .1.1.7.4 1.2 1 1.6 1.6-.6-.4-1.4-.6-2.2-.5 3.3 1.6 2.4 7.2-2.1 7-.4 0-.8-.1-1.2-.2-.1 0-.2-.1-.3-.1-.1 0-.1 0-.2-.1-1.1-.6-2-1.6-2.1-3 0 0 .4-1.6 3-1.6.3 0 1.1-.8 1.1-1 0-.1-1.6-.7-2.2-1.3l-.6-.6c-.1-.1-.2-.1-.2-.2-.2-.7-.2-1.5 0-2.2-.8.4-1.6 1-2.2 1.7-.4-.5-.3-1.9-.3-2.3-.1 0-.2.1-.3.2-.3.2-.6.5-.9.8-.3.3-.6.7-.9 1-.6.8-1 1.8-1.2 2.7 0 0-.1.4-.1.8v.2c0 .2 0 .3-.1.5v.3c0 5 4.2 9.1 9.2 9 4.4 0 8.1-3.2 8.9-7.5v-.3c-.1-1.3-.3-2.9-.9-4.3z"/>
  <path fill="#ff5634" d="M21.4 167c-.4-.9-1.2-2-1.8-2.3.4.9.8 1.8.9 2.7-1-2.5-2.8-3.6-4.2-5.8-.1-.1-.1-.2-.2-.3 0-.1-.1-.1-.1-.2-.1-.1-.1-.2-.1-.4-2 1.2-2.9 3.2-3.1 4.5-.6 0-1.2.2-1.8.5-.1.1-.2.2-.1.3.1.1.2.2.3.1.5-.2 1-.4 1.6-.4H13.1c.4 0 .9.1 1.3.2h.1c.1 0 .1 0 .2.1.1 0 .1 0 .2.1h.1c.1 0 .1.1.2.1h.1c.1 0 .1.1.2.1 0 0 .1 0 .1.1.7.4 1.2 1 1.6 1.6-.6-.4-1.4-.6-2.2-.5 3.3 1.6 2.4 7.2-2.1 7-.4 0-.8-.1-1.2-.2-.1 0-.2-.1-.3-.1-.1 0-.1 0-.2-.1-1.1-.6-2-1.6-2.1-3 0 0 .4-1.6 3-1.6.3 0 1.1-.8 1.1-1 0-.1-1.6-.7-2.2-1.3l-.6-.6c-.1-.1-.2-.1-.2-.2-.2-.7-.2-1.5 0-2.2-.8.4-1.6 1-2.2 1.7-.4-.5-.3-1.9-.3-2.3-.1 0-.2.1-.3.2-.3.2-.6.5-.9.8-.3.3-.6.7-.9 1-.6.8-1 1.8-1.2 2.7 0 0-.1.4-.1.8v.2c0 .2 0 .3-.1.5v.3c0 5 4.2 9.1 9.2 9 4.4 0 8.1-3.2 8.9-7.5v-.3c-.1-1.3-.3-2.8-.9-4.3z"/>
</svg>
