<svg id="mozilla-wordmark-red" xmlns="http://www.w3.org/2000/svg" viewBox="0 0 92 24">
  <style>
    .st0{fill:#C13832;}
  </style>
  <path class="st0" d="M19.8 7.9c-.7-.6-1.9-1-3.2-1-1.8 0-3.1.6-4.5 2.1-.2-.3-.4-.6-.6-.8-.8-.9-2-1.3-3.2-1.3-1.5 0-2.8.6-3.9 1.6-.2-.8-.3-1.2-.6-1.6L0 7.9c.4.8.6 1.8.6 4.1v11.2h4.1V11.5c.9-.8 2-1.2 2.8-1.2 1.1 0 1.4.5 1.4 2.5v10.4h4V11.7c.9-.8 2-1.3 2.8-1.3 1.1 0 1.3.4 1.3 2.3v10.6h4V11.8c0-2.2-.3-3.2-1.2-3.9zm10.8-1.1c-4.3 0-7.2 3.4-7.2 8.4s2.8 8.3 7.2 8.3c2.5 0 4-.8 5.3-2.2 1.4-1.5 2-3.4 2-6.2 0-2.6-.6-4.3-1.8-5.9-1.5-1.6-3.3-2.4-5.5-2.4zm.1 13.7c-.8 0-1.8-.4-2.1-1.3-.3-.8-.5-2.2-.5-4 0-1.6.1-2.7.4-3.6.3-1 1.1-1.6 2.2-1.6.7 0 1.4.3 1.8.8.6.7.8 2.1.8 4.3 0 3.7-.8 5.4-2.6 5.4zM51.3 10V7.2H39.4v2.9h6.9l-7.5 10.5v2.6h11.8l1-2.9h-7.4L51.3 10zm2.4 13.2h4.2V6.8l-4.2.6v15.8zM55.9.1c-1.4 0-2.6 1.1-2.6 2.6 0 1.4 1.1 2.6 2.6 2.6s2.6-1.1 2.6-2.6C58.4 1.3 57.3.1 55.9.1zm10.8 20.6c-.3 0-.7-.1-.8-.4-.3-.4-.3-.8-.3-3.6V4.2c0-2.2-.1-3.3-.2-4.2L61 1c.1 1.4.2 2.7.2 4.8v12c0 2.3.1 2.8.4 3.6.5 1.4 2 2.2 3.7 2.2.9 0 1.8-.1 2.5-.4l-.7-2.5h-.4zm8.7 0c-.3 0-.7-.1-.8-.4-.3-.4-.3-.8-.3-3.6V4.2c0-2.2-.1-3.3-.2-4.2l-4.3 1c.1 1.4.2 2.7.2 4.8v12c0 2.3.1 2.8.4 3.6.5 1.4 2 2.2 3.7 2.2.9 0 1.8-.1 2.5-.4l-.7-2.5h-.5zm15.1-2.6v-.3l.1-5.4c0-1.7-.1-2.2-.3-2.9-.6-1.8-2.5-2.8-5.2-2.8-1.5 0-2.8.3-4.4.9-1 .6-1.7.9-2.5 1.4l1.8 3c1.7-1.1 3.3-1.8 4.6-1.8 1.5 0 1.9.6 1.9 2.4v.6h-.9c-5.1 0-7.7 1.8-7.7 5.5 0 3.2 2 5 5.5 5 1.3 0 2.4-.3 3.2-.9.3-.2.7-.5 1-.8.4.8 1.3 1.5 2.2 2l2.2-2.6c-1.2-.9-1.5-1.5-1.5-3.3zm-4.1 1.5c-.6.7-1.4 1.1-2.2 1.1-1.1 0-1.8-.8-1.8-2.1 0-1.9 1-2.4 3.9-2.4h.2l-.1 3.4z"/>
</svg>
